<?xml version="1.0" standalone="no"?>
<!DOCTYPE svg PUBLIC "-//W3C//DTD SVG 20010904//EN"
 "http://www.w3.org/TR/2001/REC-SVG-20010904/DTD/svg10.dtd">
<svg version="1.0" xmlns="http://www.w3.org/2000/svg"
 width="1000.000000pt" height="1000.000000pt" viewBox="0 0 1000.000000 1000.000000"
 preserveAspectRatio="xMidYMid meet">
<metadata>
Created by potrace 1.14, written by Peter Selinger 2001-2017
</metadata>
<g transform="translate(0.000000,1000.000000) scale(0.100000,-0.100000)"
fill="#000000" stroke="none">
<path d="M4852 9369 c-244 -31 -483 -150 -658 -326 -387 -390 -441 -992 -130
-1447 40 -58 44 -67 29 -73 -354 -123 -704 -341 -989 -615 -335 -323 -573
-715 -719 -1183 -33 -108 -85 -326 -85 -361 0 -2 -10 -4 -22 -4 -52 -1 -51 8
-45 -361 7 -453 28 -582 129 -819 22 -52 62 -147 88 -210 26 -63 77 -178 113
-256 86 -182 111 -274 147 -527 56 -390 89 -497 235 -767 34 -63 90 -168 124
-233 35 -65 65 -116 68 -113 2 2 -23 121 -56 263 -34 143 -60 272 -60 289 1
21 3 23 6 9 27 -110 101 -347 137 -440 l45 -115 -39 -82 c-93 -196 -134 -429
-147 -824 l-6 -211 59 -47 59 -46 7 227 c10 365 39 578 100 751 48 139 37 135
137 40 48 -46 131 -114 184 -153 l97 -70 -6 -40 c-3 -22 -8 -264 -10 -538 l-6
-497 56 -25 c31 -14 59 -25 62 -25 3 0 4 238 2 528 l-3 529 110 -72 c61 -39
173 -109 250 -155 77 -45 165 -98 195 -116 30 -18 56 -31 57 -30 2 2 -6 47
-17 101 -11 53 -20 116 -20 139 0 41 1 40 49 -56 98 -196 179 -284 326 -355
l95 -46 -5 -36 c-5 -37 -45 -472 -45 -490 0 -6 48 -49 107 -96 141 -111 140
-111 283 -3 96 73 109 87 109 113 0 17 -11 143 -24 280 l-24 250 47 39 c87 73
167 165 224 256 l57 92 8 -39 c4 -21 8 -77 7 -125 0 -49 3 -88 7 -88 5 0 106
52 226 116 237 127 373 211 471 293 35 29 65 51 67 49 2 -1 -1 -37 -5 -78 -5
-41 -9 -279 -10 -528 l0 -452 60 30 60 30 0 363 c0 356 -9 551 -31 654 l-10
53 50 82 c51 83 119 242 141 331 7 26 15 47 19 47 4 0 17 -14 30 -31 22 -30
22 -34 11 -117 -6 -48 -14 -96 -16 -107 -4 -13 13 -2 46 32 l51 53 25 -57 c34
-77 70 -215 88 -343 16 -106 35 -403 39 -603 l2 -107 59 46 59 47 -6 206 c-13
418 -59 676 -153 863 l-23 46 43 54 c81 98 176 252 251 403 115 234 172 418
261 840 44 212 48 225 114 360 37 77 84 184 104 238 20 54 59 154 87 222 27
68 62 175 77 237 26 109 27 122 26 383 -2 288 -15 508 -32 540 -5 11 -20 67
-31 125 -45 227 -160 553 -270 765 -71 136 -215 368 -301 483 -84 114 -300
329 -420 419 -207 154 -437 281 -665 364 -71 27 -129 52 -128 56 1 4 24 46 52
92 58 96 102 205 133 329 30 118 32 377 5 497 -134 577 -677 959 -1255 884z
m397 -145 c570 -144 898 -751 708 -1309 -49 -144 -160 -321 -195 -311 -104 31
-452 35 -452 6 0 -11 99 -43 250 -80 323 -80 490 -139 701 -246 403 -206 681
-461 920 -847 159 -256 247 -443 324 -692 34 -109 95 -361 95 -390 0 -3 -76
-5 -168 -5 l-169 0 -62 125 c-155 311 -410 621 -607 737 -80 47 -196 92 -218
85 -12 -5 45 -63 198 -204 l100 -91 -40 -11 c-21 -6 -93 -21 -159 -32 -104
-18 -147 -21 -320 -16 -264 6 -495 50 -750 141 -55 20 -101 36 -102 36 -2 0
-6 -18 -9 -39 -9 -58 -36 -95 -103 -145 -62 -45 -194 -106 -230 -106 -21 0
-21 0 2 48 49 97 80 190 113 336 18 83 32 152 30 153 -1 2 -59 -57 -129 -131
-136 -144 -229 -215 -397 -304 -341 -180 -818 -285 -1470 -323 -217 -12 -322
-24 -352 -40 l-21 -11 24 -19 c13 -11 56 -29 94 -40 39 -12 71 -23 73 -24 2
-2 -11 -31 -28 -64 l-30 -61 -208 2 -207 3 3 25 c10 77 79 362 113 465 174
527 597 1030 1143 1359 92 56 282 151 376 189 36 15 164 56 285 93 121 36 240
76 265 89 l45 23 -39 7 c-53 10 -266 -1 -343 -18 -62 -13 -63 -13 -86 12 -72
79 -148 216 -185 331 -37 115 -46 182 -46 320 1 215 51 379 167 553 242 362
674 528 1096 421z m-419 -3347 c-37 -82 -38 -120 -5 -152 72 -73 352 21 498
167 l69 68 112 -34 c251 -77 471 -110 716 -110 191 1 303 15 458 60 82 23 94
25 105 12 54 -67 141 -184 175 -235 54 -80 162 -274 162 -290 0 -10 -81 -13
-390 -13 l-390 0 -63 25 c-69 29 -113 27 -141 -4 -17 -18 -55 -19 -1118 -19
-1058 1 -1103 1 -1132 19 -39 24 -69 24 -141 -1 -54 -18 -84 -20 -397 -20
l-339 0 33 62 c40 75 32 72 261 88 592 40 1179 203 1487 413 36 25 66 41 68
38 1 -4 -11 -37 -28 -74z m540 -794 c-10 -38 -20 -67 -24 -66 -158 42 -196 47
-351 46 -140 0 -172 -3 -260 -27 -54 -14 -102 -23 -105 -18 -7 7 -30 105 -30
123 0 5 160 9 394 9 l394 0 -18 -67z m-2663 -96 c30 -29 47 -96 34 -130 -14
-36 -66 -69 -117 -75 -41 -4 -47 -2 -85 37 -40 39 -41 43 -37 91 3 29 13 59
23 70 41 45 140 49 182 7z m3147 2 c64 -50 74 -123 23 -174 -84 -84 -214 -34
-211 81 1 51 24 85 67 101 49 18 92 15 121 -8z m-3013 -25 c9 -11 10 -20 2
-32 -15 -24 -44 -27 -59 -7 -28 38 27 75 57 39z m3159 -9 c20 -25 8 -50 -25
-50 -24 0 -31 5 -33 24 -6 37 34 55 58 26z m-819 -111 c114 -21 153 -38 146
-64 -10 -37 13 -243 37 -340 30 -118 54 -180 111 -287 175 -331 496 -569 875
-648 233 -49 543 -15 733 82 27 13 51 22 53 20 8 -8 -68 -183 -132 -305 -68
-129 -74 -154 -47 -184 40 -44 85 -15 198 127 26 33 50 62 53 65 20 20 -61
-309 -113 -460 -49 -141 -168 -384 -245 -498 -34 -50 -66 -92 -70 -92 -4 0
-10 37 -13 83 -7 92 -32 191 -70 284 -25 62 -141 233 -158 233 -5 0 -9 -66 -9
-147 0 -309 -57 -583 -168 -813 -59 -123 -158 -225 -322 -333 -101 -66 -355
-207 -373 -207 -4 0 -7 10 -7 23 -1 39 -44 150 -90 229 -25 43 -48 77 -51 78
-4 0 -21 -37 -40 -83 -75 -188 -134 -282 -250 -392 -42 -39 -103 -85 -140
-105 l-66 -34 -85 21 c-94 23 -223 79 -276 119 -111 85 -228 324 -307 628 -19
70 -36 130 -38 133 -7 6 -76 -208 -93 -285 -7 -37 -14 -104 -14 -149 0 -46 -3
-83 -7 -83 -5 0 -102 61 -218 134 -330 211 -545 380 -629 494 -77 105 -210
536 -279 905 -14 72 -13 77 3 77 23 0 53 34 53 63 0 13 -22 79 -48 148 -26 68
-58 156 -70 195 l-22 70 77 -22 c124 -36 230 -48 370 -41 137 8 223 23 345 63
437 143 767 522 849 975 8 46 18 130 22 186 l6 101 87 21 c116 27 120 28 242
30 62 0 142 -6 190 -15z m2135 -1136 c-18 -26 -22 -17 -5 14 6 11 13 17 16 15
3 -3 -2 -16 -11 -29z m-4460 -156 c14 -40 24 -75 21 -78 -2 -3 -28 32 -57 78
-30 46 -60 93 -68 106 -14 22 -13 22 31 -5 40 -25 49 -36 73 -101z m86 -494
c-17 -51 -33 -118 -37 -148 l-8 -55 -13 50 c-12 44 -40 217 -60 375 l-7 55 77
-92 77 -92 -29 -93z m3704 -786 c-16 -16 -27 19 -20 64 l8 49 9 -53 c5 -30 6
-56 3 -60z m-1659 -1309 c35 -3 75 -1 94 6 18 6 35 9 38 5 3 -3 15 -109 26
-236 l21 -231 -84 -63 -84 -63 -79 61 c-92 71 -87 44 -64 301 22 241 22 240
48 232 12 -3 50 -9 84 -12z"/>
<path d="M5101 7653 c-33 -40 -11 -93 39 -93 55 0 82 73 38 104 -32 23 -54 20
-77 -11z"/>
<path d="M4950 7646 c-6 -8 -10 -25 -8 -38 2 -19 9 -23 38 -23 29 0 36 4 38
23 4 28 -14 52 -38 52 -10 0 -23 -7 -30 -14z"/>
<path d="M4426 3934 c-22 -21 -20 -67 2 -87 17 -15 67 -17 520 -17 549 0 532
-2 532 59 0 63 14 61 -538 61 -442 0 -502 -2 -516 -16z"/>
<path d="M3400 2516 c0 -62 39 -204 76 -279 68 -135 174 -263 303 -366 49 -39
90 -71 92 -71 3 0 4 51 4 113 0 61 4 126 8 142 l9 30 23 -46 c23 -44 107 -129
127 -129 6 0 -5 17 -22 37 -49 56 -75 124 -95 247 l-6 38 -26 -23 c-32 -31
-80 -124 -88 -175 -12 -71 -12 -71 -71 -13 -132 129 -267 344 -309 492 -9 31
-18 57 -21 57 -2 0 -4 -24 -4 -54z"/>
</g>
</svg>
